<svg width="20" height="20" viewBox="0 0 20 20" fill="none" xmlns="http://www.w3.org/2000/svg">
<path d="M13.6583 4.83072C13.7998 4.83072 14.0188 4.84757 14.3152 4.88125C14.6184 4.9082 14.962 4.98231 15.3461 5.10359C15.7301 5.22486 16.1209 5.42025 16.5184 5.68974C16.9159 5.95924 17.2831 6.33653 17.6199 6.82163C17.5862 6.84184 17.4582 6.93279 17.2359 7.09449C17.0203 7.25619 16.7744 7.492 16.4982 7.80192C16.2219 8.1051 15.9794 8.4925 15.7705 8.96412C15.5684 9.429 15.4673 9.98484 15.4673 10.6316C15.4673 11.3727 15.5953 11.9993 15.8514 12.5114C16.1141 13.0234 16.4173 13.4378 16.7609 13.7544C17.1113 14.0711 17.4212 14.3035 17.6907 14.4517C17.9669 14.5932 18.1151 14.6673 18.1353 14.6741C18.1286 14.701 18.0781 14.8526 17.9838 15.1289C17.8894 15.3983 17.7412 15.7487 17.5391 16.1799C17.3437 16.6043 17.0877 17.049 16.771 17.5139C16.4813 17.9249 16.1815 18.319 15.8716 18.6963C15.5684 19.0736 15.2349 19.3802 14.8711 19.616C14.514 19.8585 14.1097 19.9798 13.6583 19.9798C13.3147 19.9798 13.0217 19.9394 12.7791 19.8585C12.5366 19.7777 12.3041 19.6833 12.0818 19.5755C11.8662 19.4745 11.627 19.3835 11.3642 19.3027C11.1015 19.2218 10.7747 19.1814 10.384 19.1814C9.87191 19.1814 9.44409 19.2488 9.10048 19.3835C8.76361 19.525 8.44358 19.6631 8.1404 19.7979C7.83721 19.9326 7.48013 20 7.06915 20C6.44257 20 5.8901 19.7507 5.41175 19.2521C4.94013 18.7536 4.45504 18.1573 3.95647 17.4634C3.57244 16.9109 3.22209 16.2742 2.90543 15.5533C2.58877 14.8324 2.33612 14.0677 2.14747 13.2592C1.95883 12.4507 1.8645 11.6422 1.8645 10.8338C1.8645 9.54017 2.11042 8.45208 2.60225 7.56948C3.09408 6.68688 3.72403 6.01988 4.49209 5.56847C5.26016 5.11706 6.05854 4.89136 6.88724 4.89136C7.32517 4.89136 7.73615 4.9621 8.12019 5.10359C8.51096 5.24507 8.87478 5.38993 9.21165 5.53815C9.54852 5.67964 9.85507 5.75038 10.1313 5.75038C10.3941 5.75038 10.704 5.67627 11.0611 5.52804C11.4181 5.37308 11.8123 5.21812 12.2435 5.06316C12.6814 4.9082 13.153 4.83072 13.6583 4.83072ZM12.9509 3.19353C12.614 3.60451 12.1896 3.94475 11.6775 4.21425C11.1722 4.48375 10.6939 4.61849 10.2425 4.61849C10.1481 4.61849 10.0572 4.60839 9.96961 4.58818C9.96287 4.56123 9.95276 4.51406 9.93929 4.44669C9.93255 4.37932 9.92918 4.3052 9.92918 4.22436C9.92918 3.71231 10.0403 3.21374 10.2627 2.72865C10.485 2.24356 10.741 1.83931 11.0307 1.51592C11.3878 1.09146 11.8392 0.737746 12.385 0.454775C12.9374 0.171804 13.4663 0.0202122 13.9716 0C13.9918 0.114536 14.0019 0.245915 14.0019 0.394138C14.0019 0.912919 13.9043 1.41822 13.7089 1.91006C13.5135 2.39515 13.2608 2.82297 12.9509 3.19353Z" fill="white"/>
</svg>
