<svg width="24" height="24" viewBox="0 0 24 24" fill="none" xmlns="http://www.w3.org/2000/svg">
<path fill-rule="evenodd" clip-rule="evenodd" d="M11.3164 2.06949C11.515 1.97684 11.7443 1.97684 11.9429 2.06949L20.8317 6.21765C21.0926 6.33936 21.2593 6.6011 21.2593 6.8889V17.1111C21.2593 17.399 21.0926 17.6606 20.8317 17.7824L11.9429 21.9306C11.7443 22.0231 11.515 22.0231 11.3164 21.9306L2.4275 17.7824C2.1667 17.6606 2 17.399 2 17.1111V6.8889C2 6.6011 2.1667 6.33936 2.4275 6.21765L11.3164 2.06949ZM3.48148 8.00857L10.8889 11.1567V20.0962L3.48148 16.6394V8.00857ZM12.3704 20.0962L19.7778 16.6394V8.00857L12.3704 11.1567V20.0962ZM11.6296 9.86182L18.6991 6.85728L11.6296 3.55817L4.56014 6.85728L11.6296 9.86182Z" fill="#707070"/>
</svg>
