<svg width="25" height="24" viewBox="0 0 25 24" fill="none" xmlns="http://www.w3.org/2000/svg">
<path fill-rule="evenodd" clip-rule="evenodd" d="M12.0664 2.06949C12.265 1.97684 12.4943 1.97684 12.6929 2.06949L21.5817 6.21765C21.8426 6.33936 22.0093 6.6011 22.0093 6.8889V17.1111C22.0093 17.399 21.8426 17.6606 21.5817 17.7824L12.6929 21.9306C12.4943 22.0231 12.265 22.0231 12.0664 21.9306L3.1775 17.7824C2.9167 17.6606 2.75 17.399 2.75 17.1111V6.8889C2.75 6.6011 2.9167 6.33936 3.1775 6.21765L12.0664 2.06949ZM4.23148 8.00857L11.6389 11.1567V20.0962L4.23148 16.6394V8.00857ZM13.1204 20.0962L20.5278 16.6394V8.00857L13.1204 11.1567V20.0962ZM12.3796 9.86182L19.4491 6.85728L12.3796 3.55817L5.31014 6.85728L12.3796 9.86182Z" fill="#DCAE96"/>
</svg>
