<svg width="20" height="20" viewBox="0 0 20 20" fill="none" xmlns="http://www.w3.org/2000/svg">
<g clip-path="url(#clip0_199_1377)">
<path d="M19.9895 10.1871C19.9895 9.3677 19.9214 8.76976 19.7742 8.14969H10.1992V11.848H15.8195C15.7062 12.7671 15.0943 14.1512 13.7346 15.0813L13.7155 15.2051L16.7429 17.4969L16.9527 17.5174C18.8789 15.7789 19.9895 13.2211 19.9895 10.1871Z" fill="#4285F4"/>
<path d="M10.1993 19.9313C12.9527 19.9313 15.2643 19.0454 16.9527 17.5174L13.7346 15.0813C12.8734 15.6682 11.7176 16.0779 10.1993 16.0779C7.50243 16.0779 5.21353 14.3395 4.39759 11.9366L4.278 11.9466L1.13003 14.3273L1.08887 14.4391C2.76588 17.6945 6.21061 19.9313 10.1993 19.9313Z" fill="#34A853"/>
<path d="M4.39772 11.9366C4.18243 11.3166 4.05783 10.6521 4.05783 9.96564C4.05783 9.27908 4.18243 8.61473 4.38639 7.99465L4.38069 7.86259L1.19329 5.44366L1.089 5.49213C0.39782 6.84305 0.0012207 8.36007 0.0012207 9.96564C0.0012207 11.5712 0.39782 13.0882 1.089 14.4391L4.39772 11.9366Z" fill="#FBBC05"/>
<path d="M10.1993 3.85337C12.1142 3.85337 13.406 4.66169 14.1425 5.33719L17.0207 2.59108C15.253 0.985511 12.9527 1.52588e-05 10.1993 1.52588e-05C6.21061 1.52588e-05 2.76588 2.23673 1.08887 5.49215L4.38626 7.99467C5.21352 5.59185 7.50243 3.85337 10.1993 3.85337Z" fill="#EB4335"/>
</g>
<defs>
<clipPath id="clip0_199_1377">
<rect width="20" height="20" fill="white"/>
</clipPath>
</defs>
</svg>
