<svg width="20" height="20" viewBox="0 0 20 20" fill="none" xmlns="http://www.w3.org/2000/svg">
<path fill-rule="evenodd" clip-rule="evenodd" d="M10.0664 0.0694935C10.265 -0.0231645 10.4943 -0.0231645 10.6929 0.0694935L19.5817 4.21765C19.8426 4.33936 20.0093 4.6011 20.0093 4.8889V15.1111C20.0093 15.399 19.8426 15.6606 19.5817 15.7824L10.6929 19.9306C10.4943 20.0231 10.265 20.0231 10.0664 19.9306L1.1775 15.7824C0.916697 15.6606 0.75 15.399 0.75 15.1111V4.8889C0.75 4.6011 0.916697 4.33936 1.1775 4.21765L10.0664 0.0694935ZM2.23148 6.00857L9.6389 9.15673V18.0962L2.23148 14.6394V6.00857ZM11.1204 18.0962L18.5278 14.6394V6.00857L11.1204 9.15673V18.0962ZM10.3796 7.86182L17.4491 4.85728L10.3796 1.55817L3.31014 4.85728L10.3796 7.86182Z" fill="#673147"/>
</svg>
