<svg width="25" height="24" viewBox="0 0 25 24" fill="none" xmlns="http://www.w3.org/2000/svg">
<path d="M15.5 12C15.5 12.5933 15.3241 13.1734 14.9944 13.6667C14.6648 14.1601 14.1962 14.5446 13.6481 14.7716C13.0999 14.9987 12.4967 15.0581 11.9147 14.9424C11.3328 14.8266 10.7982 14.5409 10.3787 14.1213C9.95912 13.7018 9.6734 13.1672 9.55764 12.5853C9.44189 12.0033 9.5013 11.4001 9.72836 10.8519C9.95542 10.3038 10.3399 9.83524 10.8333 9.50559C11.3266 9.17595 11.9067 9 12.5 9C13.2956 9 14.0587 9.31607 14.6213 9.87868C15.1839 10.4413 15.5 11.2044 15.5 12ZM20.5 10H19.91C19.7033 9.99918 19.5019 9.93431 19.3336 9.81433C19.1652 9.69434 19.0382 9.52514 18.97 9.33C18.881 9.1427 18.8525 8.93237 18.8883 8.72812C18.9241 8.52388 19.0226 8.33583 19.17 8.19L19.58 7.78C19.6737 7.68704 19.7481 7.57644 19.7989 7.45458C19.8497 7.33272 19.8758 7.20201 19.8758 7.07C19.8758 6.93799 19.8497 6.80728 19.7989 6.68542C19.7481 6.56356 19.6737 6.45296 19.58 6.36L18.16 4.93C18.067 4.83627 17.9564 4.76188 17.8346 4.71111C17.7127 4.66034 17.582 4.6342 17.45 4.6342C17.318 4.6342 17.1873 4.66034 17.0654 4.71111C16.9436 4.76188 16.833 4.83627 16.74 4.93L16.33 5.34C16.1842 5.48742 15.9961 5.58586 15.7919 5.62169C15.5876 5.65752 15.3773 5.62897 15.19 5.54C14.9895 5.47463 14.8148 5.34755 14.6909 5.17693C14.567 5.00631 14.5002 4.80088 14.5 4.59V4C14.5 3.73478 14.3946 3.48043 14.2071 3.29289C14.0196 3.10536 13.7652 3 13.5 3H11.5C11.2348 3 10.9804 3.10536 10.7929 3.29289C10.6054 3.48043 10.5 3.73478 10.5 4V4.59C10.4992 4.79672 10.4343 4.9981 10.3143 5.16643C10.1943 5.33477 10.0251 5.46178 9.83 5.53C9.6427 5.61897 9.43237 5.64752 9.22812 5.61169C9.02388 5.57586 8.83583 5.47742 8.69 5.33L8.28 4.92C8.18704 4.82627 8.07644 4.75188 7.95458 4.70111C7.83272 4.65034 7.70201 4.6242 7.57 4.6242C7.43799 4.6242 7.30728 4.65034 7.18542 4.70111C7.06356 4.75188 6.95296 4.82627 6.86 4.92L5.43 6.34C5.33627 6.43296 5.26188 6.54356 5.21111 6.66542C5.16034 6.78728 5.1342 6.91799 5.1342 7.05C5.1342 7.18201 5.16034 7.31272 5.21111 7.43458C5.26188 7.55644 5.33627 7.66704 5.43 7.76L5.84 8.17C5.98742 8.31583 6.08586 8.50388 6.12169 8.70813C6.15752 8.91237 6.12897 9.1227 6.04 9.31C5.97178 9.50514 5.84477 9.67434 5.67643 9.79433C5.5081 9.91431 5.30672 9.97918 5.1 9.98H4.5C4.23478 9.98 3.98043 10.0854 3.79289 10.2729C3.60536 10.4604 3.5 10.7148 3.5 10.98V12.98C3.5 13.2452 3.60536 13.4996 3.79289 13.6871C3.98043 13.8746 4.23478 13.98 4.5 13.98H5.09C5.29672 13.9808 5.4981 14.0457 5.66643 14.1657C5.83477 14.2857 5.96178 14.4549 6.03 14.65C6.11897 14.8373 6.14752 15.0476 6.11169 15.2519C6.07586 15.4561 5.97742 15.6442 5.83 15.79L5.42 16.2C5.32627 16.293 5.25188 16.4036 5.20111 16.5254C5.15034 16.6473 5.1242 16.778 5.1242 16.91C5.1242 17.042 5.15034 17.1727 5.20111 17.2946C5.25188 17.4164 5.32627 17.527 5.42 17.62L6.83 19.03C6.92296 19.1237 7.03356 19.1981 7.15542 19.2489C7.27728 19.2997 7.40799 19.3258 7.54 19.3258C7.67201 19.3258 7.80272 19.2997 7.92458 19.2489C8.04644 19.1981 8.15704 19.1237 8.25 19.03L8.66 18.62C8.80583 18.4726 8.99388 18.3741 9.19812 18.3383C9.40237 18.3025 9.6127 18.331 9.8 18.42C9.99514 18.4882 10.1643 18.6152 10.2843 18.7836C10.4043 18.9519 10.4692 19.1533 10.47 19.36V20C10.47 20.2652 10.5754 20.5196 10.7629 20.7071C10.9504 20.8946 11.2048 21 11.47 21H13.47C13.7352 21 13.9896 20.8946 14.1771 20.7071C14.3646 20.5196 14.47 20.2652 14.47 20V19.41C14.4708 19.2033 14.5357 19.0019 14.6557 18.8336C14.7757 18.6652 14.9449 18.5382 15.14 18.47C15.3273 18.381 15.5376 18.3525 15.7419 18.3883C15.9461 18.4241 16.1342 18.5226 16.28 18.67L16.69 19.08C16.783 19.1737 16.8936 19.2481 17.0154 19.2989C17.1373 19.3497 17.268 19.3758 17.4 19.3758C17.532 19.3758 17.6627 19.3497 17.7846 19.2989C17.9064 19.2481 18.017 19.1737 18.11 19.08L19.52 17.67C19.6137 17.577 19.6881 17.4664 19.7389 17.3446C19.7897 17.2227 19.8158 17.092 19.8158 16.96C19.8158 16.828 19.7897 16.6973 19.7389 16.5754C19.6881 16.4536 19.6137 16.343 19.52 16.25L19.11 15.84C18.9626 15.6942 18.8641 15.5061 18.8283 15.3019C18.7925 15.0976 18.821 14.8873 18.91 14.7C18.9782 14.5049 19.1052 14.3357 19.2736 14.2157C19.4419 14.0957 19.6433 14.0308 19.85 14.03H20.5C20.7652 14.03 21.0196 13.9246 21.2071 13.7371C21.3946 13.5496 21.5 13.2952 21.5 13.03V11C21.5 10.7348 21.3946 10.4804 21.2071 10.2929C21.0196 10.1054 20.7652 10 20.5 10Z" stroke="#DCAE96" stroke-width="1.5" stroke-linecap="round" stroke-linejoin="round"/>
</svg>
