<svg width="21" height="20" viewBox="0 0 21 20" fill="none" xmlns="http://www.w3.org/2000/svg">
<path d="M13.5 10C13.5 10.5933 13.3241 11.1734 12.9944 11.6667C12.6648 12.1601 12.1962 12.5446 11.6481 12.7716C11.0999 12.9987 10.4967 13.0581 9.91473 12.9424C9.33279 12.8266 8.79824 12.5409 8.37868 12.1213C7.95912 11.7018 7.6734 11.1672 7.55764 10.5853C7.44189 10.0033 7.5013 9.40013 7.72836 8.85195C7.95542 8.30377 8.33994 7.83524 8.83329 7.50559C9.32664 7.17595 9.90666 7 10.5 7C11.2956 7 12.0587 7.31607 12.6213 7.87868C13.1839 8.44129 13.5 9.20435 13.5 10ZM18.5 8H17.91C17.7033 7.99918 17.5019 7.93431 17.3336 7.81433C17.1652 7.69434 17.0382 7.52514 16.97 7.33C16.881 7.1427 16.8525 6.93237 16.8883 6.72812C16.9241 6.52388 17.0226 6.33583 17.17 6.19L17.58 5.78C17.6737 5.68704 17.7481 5.57644 17.7989 5.45458C17.8497 5.33272 17.8758 5.20201 17.8758 5.07C17.8758 4.93799 17.8497 4.80728 17.7989 4.68542C17.7481 4.56356 17.6737 4.45296 17.58 4.36L16.16 2.93C16.067 2.83627 15.9564 2.76188 15.8346 2.71111C15.7127 2.66034 15.582 2.6342 15.45 2.6342C15.318 2.6342 15.1873 2.66034 15.0654 2.71111C14.9436 2.76188 14.833 2.83627 14.74 2.93L14.33 3.34C14.1842 3.48742 13.9961 3.58586 13.7919 3.62169C13.5876 3.65752 13.3773 3.62897 13.19 3.54C12.9895 3.47463 12.8148 3.34755 12.6909 3.17693C12.567 3.00631 12.5002 2.80088 12.5 2.59V2C12.5 1.73478 12.3946 1.48043 12.2071 1.29289C12.0196 1.10536 11.7652 1 11.5 1H9.5C9.23478 1 8.98043 1.10536 8.79289 1.29289C8.60536 1.48043 8.5 1.73478 8.5 2V2.59C8.49918 2.79672 8.43431 2.9981 8.31433 3.16643C8.19434 3.33477 8.02514 3.46178 7.83 3.53C7.6427 3.61897 7.43237 3.64752 7.22812 3.61169C7.02388 3.57586 6.83583 3.47742 6.69 3.33L6.28 2.92C6.18704 2.82627 6.07644 2.75188 5.95458 2.70111C5.83272 2.65034 5.70201 2.6242 5.57 2.6242C5.43799 2.6242 5.30728 2.65034 5.18542 2.70111C5.06356 2.75188 4.95296 2.82627 4.86 2.92L3.43 4.34C3.33627 4.43296 3.26188 4.54356 3.21111 4.66542C3.16034 4.78728 3.1342 4.91799 3.1342 5.05C3.1342 5.18201 3.16034 5.31272 3.21111 5.43458C3.26188 5.55644 3.33627 5.66704 3.43 5.76L3.84 6.17C3.98742 6.31583 4.08586 6.50388 4.12169 6.70813C4.15752 6.91237 4.12897 7.1227 4.04 7.31C3.97178 7.50514 3.84477 7.67434 3.67643 7.79433C3.5081 7.91431 3.30672 7.97918 3.1 7.98H2.5C2.23478 7.98 1.98043 8.08536 1.79289 8.27289C1.60536 8.46043 1.5 8.71478 1.5 8.98V10.98C1.5 11.2452 1.60536 11.4996 1.79289 11.6871C1.98043 11.8746 2.23478 11.98 2.5 11.98H3.09C3.29672 11.9808 3.4981 12.0457 3.66643 12.1657C3.83477 12.2857 3.96178 12.4549 4.03 12.65C4.11897 12.8373 4.14752 13.0476 4.11169 13.2519C4.07586 13.4561 3.97742 13.6442 3.83 13.79L3.42 14.2C3.32627 14.293 3.25188 14.4036 3.20111 14.5254C3.15034 14.6473 3.1242 14.778 3.1242 14.91C3.1242 15.042 3.15034 15.1727 3.20111 15.2946C3.25188 15.4164 3.32627 15.527 3.42 15.62L4.83 17.03C4.92296 17.1237 5.03356 17.1981 5.15542 17.2489C5.27728 17.2997 5.40799 17.3258 5.54 17.3258C5.67201 17.3258 5.80272 17.2997 5.92458 17.2489C6.04644 17.1981 6.15704 17.1237 6.25 17.03L6.66 16.62C6.80583 16.4726 6.99388 16.3741 7.19812 16.3383C7.40237 16.3025 7.6127 16.331 7.8 16.42C7.99514 16.4882 8.16434 16.6152 8.28433 16.7836C8.40431 16.9519 8.46918 17.1533 8.47 17.36V18C8.47 18.2652 8.57536 18.5196 8.76289 18.7071C8.95043 18.8946 9.20478 19 9.47 19H11.47C11.7352 19 11.9896 18.8946 12.1771 18.7071C12.3646 18.5196 12.47 18.2652 12.47 18V17.41C12.4708 17.2033 12.5357 17.0019 12.6557 16.8336C12.7757 16.6652 12.9449 16.5382 13.14 16.47C13.3273 16.381 13.5376 16.3525 13.7419 16.3883C13.9461 16.4241 14.1342 16.5226 14.28 16.67L14.69 17.08C14.783 17.1737 14.8936 17.2481 15.0154 17.2989C15.1373 17.3497 15.268 17.3758 15.4 17.3758C15.532 17.3758 15.6627 17.3497 15.7846 17.2989C15.9064 17.2481 16.017 17.1737 16.11 17.08L17.52 15.67C17.6137 15.577 17.6881 15.4664 17.7389 15.3446C17.7897 15.2227 17.8158 15.092 17.8158 14.96C17.8158 14.828 17.7897 14.6973 17.7389 14.5754C17.6881 14.4536 17.6137 14.343 17.52 14.25L17.11 13.84C16.9626 13.6942 16.8641 13.5061 16.8283 13.3019C16.7925 13.0976 16.821 12.8873 16.91 12.7C16.9782 12.5049 17.1052 12.3357 17.2736 12.2157C17.4419 12.0957 17.6433 12.0308 17.85 12.03H18.5C18.7652 12.03 19.0196 11.9246 19.2071 11.7371C19.3946 11.5496 19.5 11.2952 19.5 11.03V9C19.5 8.73478 19.3946 8.48043 19.2071 8.29289C19.0196 8.10536 18.7652 8 18.5 8Z" stroke="#DCAE96" stroke-width="1.5" stroke-linecap="round" stroke-linejoin="round"/>
</svg>
