<svg width="40" height="40" viewBox="0 0 40 40" fill="none" xmlns="http://www.w3.org/2000/svg">
<rect width="40" height="40" rx="10" fill="#008080"/>
<g clip-path="url(#clip0_65_579)">
<path d="M19.76 10C25.417 10 30 14.477 30 20C30 25.523 25.416 30 19.76 30C16.569 30 13.618 28.563 11.69 26.154C11.636 26.0867 11.596 26.0093 11.5725 25.9262C11.5489 25.8432 11.5423 25.7563 11.5531 25.6706C11.5638 25.585 11.5916 25.5024 11.6349 25.4277C11.6782 25.3531 11.736 25.2879 11.805 25.236C11.9456 25.129 12.1224 25.0809 12.2979 25.102C12.4734 25.1231 12.6337 25.2117 12.745 25.349C13.5884 26.3972 14.6571 27.2421 15.8717 27.8208C17.0863 28.3995 18.4156 28.6973 19.761 28.692C24.676 28.692 28.661 24.8 28.661 20C28.661 15.2 24.676 11.308 19.761 11.308C18.4348 11.3028 17.124 11.5921 15.9232 12.155C14.7223 12.7179 13.6614 13.5404 12.817 14.563C12.704 14.699 12.5424 14.7857 12.3665 14.8045C12.1906 14.8234 12.0143 14.773 11.875 14.664C11.8066 14.6112 11.7496 14.5452 11.7072 14.47C11.6649 14.3947 11.6381 14.3117 11.6285 14.2258C11.6189 14.14 11.6266 14.0531 11.6513 13.9703C11.6759 13.8876 11.717 13.8106 11.772 13.744C13.703 11.394 16.614 10 19.76 10ZM20.306 16.862L23.013 19.569C23.275 19.831 23.28 20.249 23.024 20.505L20.38 23.15C20.3179 23.2111 20.2444 23.2593 20.1636 23.2919C20.0828 23.3244 19.9963 23.3407 19.9092 23.3396C19.8221 23.3386 19.7361 23.3204 19.656 23.2859C19.576 23.2515 19.5036 23.2016 19.443 23.139C19.3805 23.0783 19.3307 23.0059 19.2963 22.9258C19.262 22.8457 19.2438 22.7597 19.2429 22.6726C19.2419 22.5855 19.2583 22.4991 19.2909 22.4183C19.3235 22.3375 19.3718 22.264 19.433 22.202L20.98 20.654L10.67 20.655C10.5829 20.6563 10.4964 20.6404 10.4155 20.6081C10.3346 20.5759 10.2609 20.5279 10.1986 20.467C10.1363 20.4061 10.0867 20.3335 10.0526 20.2534C10.0185 20.1732 10.0006 20.0871 10 20C10 19.639 10.3 19.346 10.67 19.346H20.938L19.38 17.787C19.3175 17.7263 19.2677 17.6539 19.2333 17.5738C19.199 17.4937 19.1808 17.4077 19.1799 17.3206C19.1789 17.2335 19.1953 17.147 19.2279 17.0663C19.2605 16.9855 19.3088 16.912 19.37 16.85C19.432 16.7892 19.5055 16.7412 19.5861 16.7088C19.6667 16.6765 19.7529 16.6603 19.8398 16.6614C19.9267 16.6624 20.0125 16.6805 20.0923 16.7148C20.1721 16.7491 20.2444 16.7987 20.305 16.861" fill="white"/>
</g>
<defs>
<clipPath id="clip0_65_579">
<rect width="20" height="20" fill="white" transform="translate(10 10)"/>
</clipPath>
</defs>
</svg>
