<svg width="157" height="67" viewBox="0 0 157 67" fill="none" xmlns="http://www.w3.org/2000/svg">
<g filter="url(#filter0_d_2017_2369)">
<rect x="50.5" y="5.5" width="56" height="56" rx="28" fill="#DCAE96" shape-rendering="crispEdges"/>
<path d="M94.8333 33.6667C94.8333 42.8717 87.3716 50.3333 78.1666 50.3333C68.9616 50.3333 61.5 42.8717 61.5 33.6667C61.5 24.4617 68.9616 17 78.1666 17" stroke="white" stroke-width="1.5" stroke-linecap="round" stroke-linejoin="round"/>
<path d="M89.5083 21.56L89.7208 22.215H90.41L89.8525 22.62L90.065 23.275L89.5083 22.87L88.9508 23.275L89.1633 22.62L88.6066 22.215H89.295L89.5083 21.56Z" stroke="white" stroke-width="1.5"/>
<path d="M71.5 39.5C71.5 39.5 73.1666 42.8333 78.1666 42.8333C83.1666 42.8333 84.8333 39.5 84.8333 39.5" stroke="white" stroke-width="1.5" stroke-linecap="round" stroke-linejoin="round"/>
<path d="M72.3333 34.5C73.714 34.5 74.8333 33.3807 74.8333 32C74.8333 30.6193 73.714 29.5 72.3333 29.5C70.9526 29.5 69.8333 30.6193 69.8333 32C69.8333 33.3807 70.9526 34.5 72.3333 34.5Z" stroke="white" stroke-width="1.5"/>
<path d="M84 34.5C85.3807 34.5 86.5 33.3807 86.5 32C86.5 30.6193 85.3807 29.5 84 29.5C82.6193 29.5 81.5 30.6193 81.5 32C81.5 33.3807 82.6193 34.5 84 34.5Z" stroke="white" stroke-width="1.5"/>
</g>
<defs>
<filter id="filter0_d_2017_2369" x="0.5" y="-34.5" width="156" height="156" filterUnits="userSpaceOnUse" color-interpolation-filters="sRGB">
<feFlood flood-opacity="0" result="BackgroundImageFix"/>
<feColorMatrix in="SourceAlpha" type="matrix" values="0 0 0 0 0 0 0 0 0 0 0 0 0 0 0 0 0 0 127 0" result="hardAlpha"/>
<feOffset dy="10"/>
<feGaussianBlur stdDeviation="25"/>
<feComposite in2="hardAlpha" operator="out"/>
<feColorMatrix type="matrix" values="0 0 0 0 0 0 0 0 0 0 0 0 0 0 0 0 0 0 0.25 0"/>
<feBlend mode="normal" in2="BackgroundImageFix" result="effect1_dropShadow_2017_2369"/>
<feBlend mode="normal" in="SourceGraphic" in2="effect1_dropShadow_2017_2369" result="shape"/>
</filter>
</defs>
</svg>
