<svg width="24" height="24" viewBox="0 0 24 24" fill="none" xmlns="http://www.w3.org/2000/svg">
<path d="M22 12C22 17.523 17.523 22 12 22C6.477 22 2 17.523 2 12C2 6.477 6.477 2 12 2" stroke="#707070" stroke-width="1.5" stroke-linecap="round" stroke-linejoin="round"/>
<path d="M18.805 4.73608L18.9325 5.12908H19.346L19.0115 5.37208L19.139 5.76508L18.805 5.52208L18.4705 5.76508L18.598 5.37208L18.264 5.12908H18.677L18.805 4.73608Z" stroke="#707070" stroke-width="1.5"/>
<path d="M8 15.5C8 15.5 9 17.5 12 17.5C15 17.5 16 15.5 16 15.5" stroke="#707070" stroke-width="1.5" stroke-linecap="round" stroke-linejoin="round"/>
<path d="M8.5 12.5C9.32843 12.5 10 11.8284 10 11C10 10.1716 9.32843 9.5 8.5 9.5C7.67157 9.5 7 10.1716 7 11C7 11.8284 7.67157 12.5 8.5 12.5Z" stroke="#707070" stroke-width="1.5"/>
<path d="M15.5 12.5C16.3284 12.5 17 11.8284 17 11C17 10.1716 16.3284 9.5 15.5 9.5C14.6716 9.5 14 10.1716 14 11C14 11.8284 14.6716 12.5 15.5 12.5Z" stroke="#707070" stroke-width="1.5"/>
</svg>
