<svg width="40" height="40" viewBox="0 0 40 40" fill="none" xmlns="http://www.w3.org/2000/svg">
<rect width="40" height="40" rx="10" fill="#191970"/>
<path d="M20 25C19.5634 25.0001 19.1404 24.8478 18.804 24.5694C18.4677 24.291 18.239 23.904 18.1575 23.475C16.9314 23.0961 15.8517 22.3489 15.065 21.335C14.4711 20.5702 14.063 19.6779 13.873 18.7285C13.6829 17.779 13.716 16.7984 13.9697 15.8639C14.2235 14.9295 14.6909 14.0667 15.335 13.3438C15.9792 12.6208 16.7825 12.0574 17.6816 11.6981C18.5808 11.3387 19.5511 11.1931 20.5161 11.2729C21.4811 11.3526 22.4144 11.6555 23.2423 12.1576C24.0703 12.6597 24.7702 13.3473 25.287 14.1662C25.8037 14.9851 26.1231 15.9128 26.22 16.8763C26.2537 17.22 25.97 17.5 25.625 17.5C25.28 17.5 25.0038 17.2188 24.9625 16.8763C24.8509 15.9923 24.5052 15.1542 23.9611 14.4487C23.4169 13.7432 22.6941 13.1959 21.8675 12.8634C21.0409 12.531 20.1405 12.4254 19.2594 12.5577C18.3783 12.6901 17.5485 13.0554 16.856 13.616C16.1635 14.1765 15.6333 14.912 15.3204 15.7462C15.0075 16.5804 14.9231 17.4831 15.0761 18.3608C15.2291 19.2386 15.6138 20.0595 16.1905 20.7386C16.7672 21.4178 17.5149 21.9305 18.3562 22.2238C18.5153 21.9336 18.7483 21.6907 19.0317 21.5197C19.315 21.3487 19.6385 21.2557 19.9694 21.2503C20.3002 21.2448 20.6267 21.3269 20.9155 21.4884C21.2043 21.6499 21.4453 21.885 21.6139 22.1697C21.7824 22.4545 21.8727 22.7788 21.8754 23.1097C21.8781 23.4406 21.7932 23.7663 21.6293 24.0538C21.4653 24.3412 21.2283 24.5802 20.9421 24.7464C20.656 24.9126 20.3309 25.0001 20 25ZM15 23.125V23.0912C14.6582 22.7851 14.3452 22.4483 14.065 22.085C13.8596 22.393 13.75 22.7548 13.75 23.125V23.75C13.75 26.2137 16.075 28.75 20 28.75C23.925 28.75 26.25 26.2137 26.25 23.75V23.125C26.25 22.6277 26.0525 22.1508 25.7008 21.7992C25.3492 21.4475 24.8723 21.25 24.375 21.25H22.5C22.7738 21.6125 22.9688 22.0375 23.0625 22.5H24.375C24.5408 22.5 24.6997 22.5658 24.8169 22.6831C24.9342 22.8003 25 22.9592 25 23.125V23.75C25 25.5475 23.21 27.5 20 27.5C16.79 27.5 15 25.5475 15 23.75V23.125ZM20 20C19.2848 20 18.5912 20.2453 18.035 20.695C17.4885 20.3602 17.0373 19.8905 16.7247 19.3309C16.4121 18.7714 16.2486 18.1409 16.25 17.5C16.2502 16.8462 16.4213 16.2039 16.7463 15.6366C17.0714 15.0694 17.5391 14.597 18.103 14.2662C18.667 13.9355 19.3076 13.758 19.9614 13.7513C20.6151 13.7445 21.2593 13.9088 21.8299 14.2278C22.4006 14.5469 22.8779 15.0095 23.2146 15.57C23.5512 16.1304 23.7355 16.7691 23.7492 17.4227C23.7628 18.0764 23.6054 18.7222 23.2924 19.2962C22.9794 19.8702 22.5218 20.3524 21.965 20.695C21.4088 20.2453 20.7152 20 20 20ZM17.5 17.5C17.5 18.163 17.7634 18.7989 18.2322 19.2678C18.7011 19.7366 19.337 20 20 20C20.663 20 21.2989 19.7366 21.7678 19.2678C22.2366 18.7989 22.5 18.163 22.5 17.5C22.5 16.837 22.2366 16.2011 21.7678 15.7322C21.2989 15.2634 20.663 15 20 15C19.337 15 18.7011 15.2634 18.2322 15.7322C17.7634 16.2011 17.5 16.837 17.5 17.5Z" fill="white"/>
</svg>
